<svg id="visual" viewBox="0 0 1920 1080" width="1920" height="1080" xmlns="http://www.w3.org/2000/svg" xmlns:xlink="http://www.w3.org/1999/xlink" version="1.1"><rect x="0" y="0" width="1920" height="1080" fill="#001220"></rect><defs><linearGradient id="grad1_0" x1="43.8%" y1="0%" x2="100%" y2="100%"><stop offset="14.444444444444446%" stop-color="#001220" stop-opacity="1"></stop><stop offset="85.55555555555554%" stop-color="#001220" stop-opacity="1"></stop></linearGradient></defs><defs><linearGradient id="grad2_0" x1="0%" y1="0%" x2="56.3%" y2="100%"><stop offset="14.444444444444446%" stop-color="#001220" stop-opacity="1"></stop><stop offset="85.55555555555554%" stop-color="#001220" stop-opacity="1"></stop></linearGradient></defs><g transform="translate(1920, 0)"><path d="M0 810C-118.7 812.5 -237.5 815 -310 748.3C-382.5 681.7 -408.7 545.8 -459.6 459.6C-510.5 373.4 -586.1 337 -648.6 268.6C-711.1 200.3 -760.5 100.2 -810 0L0 0Z" fill="#533cfa"></path></g><g transform="translate(0, 1080)"><path d="M0 -810C112.9 -806.6 225.8 -803.2 310 -748.3C394.2 -693.5 449.7 -587.2 501.3 -501.3C552.9 -415.5 600.6 -350 651.3 -269.8C702.1 -189.6 756.1 -94.8 810 0L0 0Z" fill="#533cfa"></path></g></svg>