<svg id="visual" viewBox="0 0 1920 1080" width="1920" height="1080" xmlns="http://www.w3.org/2000/svg" xmlns:xlink="http://www.w3.org/1999/xlink" version="1.1"><rect x="0" y="0" width="1920" height="1080" fill="#001220"></rect><path d="M0 744L45.7 738.3C91.3 732.7 182.7 721.3 274.2 710.5C365.7 699.7 457.3 689.3 548.8 703.2C640.3 717 731.7 755 823 775.2C914.3 795.3 1005.7 797.7 1097 776.3C1188.3 755 1279.7 710 1371.2 701C1462.7 692 1554.3 719 1645.8 731.2C1737.3 743.3 1828.7 740.7 1874.3 739.3L1920 738L1920 1081L1874.3 1081C1828.7 1081 1737.3 1081 1645.8 1081C1554.3 1081 1462.7 1081 1371.2 1081C1279.7 1081 1188.3 1081 1097 1081C1005.7 1081 914.3 1081 823 1081C731.7 1081 640.3 1081 548.8 1081C457.3 1081 365.7 1081 274.2 1081C182.7 1081 91.3 1081 45.7 1081L0 1081Z" fill="#fa7268"></path><path d="M0 861L45.7 858.7C91.3 856.3 182.7 851.7 274.2 844C365.7 836.3 457.3 825.7 548.8 810C640.3 794.3 731.7 773.7 823 759.3C914.3 745 1005.7 737 1097 737C1188.3 737 1279.7 745 1371.2 749.7C1462.7 754.3 1554.3 755.7 1645.8 751C1737.3 746.3 1828.7 735.7 1874.3 730.3L1920 725L1920 1081L1874.3 1081C1828.7 1081 1737.3 1081 1645.8 1081C1554.3 1081 1462.7 1081 1371.2 1081C1279.7 1081 1188.3 1081 1097 1081C1005.7 1081 914.3 1081 823 1081C731.7 1081 640.3 1081 548.8 1081C457.3 1081 365.7 1081 274.2 1081C182.7 1081 91.3 1081 45.7 1081L0 1081Z" fill="#ef5f67"></path><path d="M0 839L45.7 848C91.3 857 182.7 875 274.2 871C365.7 867 457.3 841 548.8 827.8C640.3 814.7 731.7 814.3 823 826.5C914.3 838.7 1005.7 863.3 1097 865.8C1188.3 868.3 1279.7 848.7 1371.2 832.5C1462.7 816.3 1554.3 803.7 1645.8 809.2C1737.3 814.7 1828.7 838.3 1874.3 850.2L1920 862L1920 1081L1874.3 1081C1828.7 1081 1737.3 1081 1645.8 1081C1554.3 1081 1462.7 1081 1371.2 1081C1279.7 1081 1188.3 1081 1097 1081C1005.7 1081 914.3 1081 823 1081C731.7 1081 640.3 1081 548.8 1081C457.3 1081 365.7 1081 274.2 1081C182.7 1081 91.3 1081 45.7 1081L0 1081Z" fill="#e34c67"></path><path d="M0 936L45.7 936.2C91.3 936.3 182.7 936.7 274.2 930.2C365.7 923.7 457.3 910.3 548.8 908.8C640.3 907.3 731.7 917.7 823 923.8C914.3 930 1005.7 932 1097 925.8C1188.3 919.7 1279.7 905.3 1371.2 905C1462.7 904.7 1554.3 918.3 1645.8 927.5C1737.3 936.7 1828.7 941.3 1874.3 943.7L1920 946L1920 1081L1874.3 1081C1828.7 1081 1737.3 1081 1645.8 1081C1554.3 1081 1462.7 1081 1371.2 1081C1279.7 1081 1188.3 1081 1097 1081C1005.7 1081 914.3 1081 823 1081C731.7 1081 640.3 1081 548.8 1081C457.3 1081 365.7 1081 274.2 1081C182.7 1081 91.3 1081 45.7 1081L0 1081Z" fill="#d53867"></path><path d="M0 970L45.7 973.2C91.3 976.3 182.7 982.7 274.2 978.3C365.7 974 457.3 959 548.8 954.5C640.3 950 731.7 956 823 962.5C914.3 969 1005.7 976 1097 973.7C1188.3 971.3 1279.7 959.7 1371.2 958C1462.7 956.3 1554.3 964.7 1645.8 969.3C1737.3 974 1828.7 975 1874.3 975.5L1920 976L1920 1081L1874.3 1081C1828.7 1081 1737.3 1081 1645.8 1081C1554.3 1081 1462.7 1081 1371.2 1081C1279.7 1081 1188.3 1081 1097 1081C1005.7 1081 914.3 1081 823 1081C731.7 1081 640.3 1081 548.8 1081C457.3 1081 365.7 1081 274.2 1081C182.7 1081 91.3 1081 45.7 1081L0 1081Z" fill="#c62368"></path></svg>